<svg width="116" height="116" viewBox="0 0 116 116" fill="none" xmlns="http://www.w3.org/2000/svg">
<path d="M99.2105 0H16.2873C7.30482 0 0 7.30429 0 16.2828V41.9001H20.9973C22.6124 34.492 29.1858 28.9379 37.0767 28.9379C44.9675 28.9379 51.5404 34.4917 53.1562 41.9001H62.3373C63.9524 34.492 70.5257 28.9379 78.4167 28.9379C86.3077 28.9379 92.8804 34.4917 94.4962 41.9001H115.498V16.2828C115.498 7.30475 108.194 0 99.2105 0Z" fill="black"/>
<path d="M78.4216 61.8909C70.5985 61.8909 64.0884 56.4318 62.401 49.1227H53.0981C51.4108 56.4315 44.896 61.8909 37.0775 61.8909C29.259 61.8909 22.7444 56.4318 21.057 49.1227L0.00195312 49.1182V99.2105C0.00195312 108.189 7.30619 115.498 16.2893 115.498H99.2217C108.195 115.498 115.5 108.189 115.5 99.2105V49.1182H94.4448C92.7575 56.427 86.2426 61.891 78.4242 61.891L78.4216 61.8909ZM70.4315 86.1546H45.0673V78.936H70.4315V86.1546Z" fill="black"/>
</svg>
